<?xml version="1.0" encoding="utf-8"?>
<!-- Generator: Adobe Illustrator 16.0.3, SVG Export Plug-In . SVG Version: 6.00 Build 0)  -->
<!DOCTYPE svg PUBLIC "-//W3C//DTD SVG 1.1//EN" "http://www.w3.org/Graphics/SVG/1.1/DTD/svg11.dtd">
<svg version="1.1" xmlns="http://www.w3.org/2000/svg" xmlns:xlink="http://www.w3.org/1999/xlink" x="0px" y="0px" width="320px"
	 height="320px" viewBox="0 0 320 320" enable-background="new 0 0 320 320" xml:space="preserve">
<g id="top-pines_1_">
	<g id="pin">
		<g>
			<path fill-rule="evenodd" clip-rule="evenodd" fill="#0E0D0E" d="M88.919,39.799C88.972,39.541,89,39.273,89,39V19
				c0-2.209-1.791-4-4-4s-4,1.791-4,4v20c0,0.273,0.028,0.541,0.081,0.799C77.506,41.323,75,44.868,75,49c0,5.522,4.477,10,10,10
				s10-4.478,10-10C95,44.868,92.494,41.323,88.919,39.799z"/>
		</g>
	</g>
	<g id="pin2">
		<g>
			<path fill-rule="evenodd" clip-rule="evenodd" fill="#0E0D0E" d="M113.919,39.799C113.972,39.541,114,39.273,114,39V19
				c0-2.209-1.791-4-4-4s-4,1.791-4,4v20c0,0.273,0.028,0.541,0.081,0.799C102.506,41.323,100,44.868,100,49c0,5.522,4.477,10,10,10
				s10-4.478,10-10C120,44.868,117.494,41.323,113.919,39.799z"/>
		</g>
	</g>
	<g id="pin3">
		<g>
			<path fill-rule="evenodd" clip-rule="evenodd" fill="#0E0D0E" d="M138.919,39.799C138.972,39.541,139,39.273,139,39V19
				c0-2.209-1.791-4-4-4s-4,1.791-4,4v20c0,0.273,0.028,0.541,0.081,0.799C127.506,41.323,125,44.868,125,49c0,5.522,4.477,10,10,10
				s10-4.478,10-10C145,44.868,142.494,41.323,138.919,39.799z"/>
		</g>
	</g>
	<g id="pin4">
		<g>
			<path fill-rule="evenodd" clip-rule="evenodd" fill="#0E0D0E" d="M163.92,39.799C163.972,39.541,164,39.273,164,39V19
				c0-2.209-1.791-4-4-4s-4,1.791-4,4v20c0,0.273,0.028,0.541,0.081,0.799C152.506,41.323,150,44.868,150,49c0,5.522,4.477,10,10,10
				c5.523,0,10-4.478,10-10C170,44.868,167.494,41.323,163.92,39.799z"/>
		</g>
	</g>
	<g id="pin5">
		<g>
			<path fill-rule="evenodd" clip-rule="evenodd" fill="#0E0D0E" d="M188.92,39.799C188.972,39.541,189,39.273,189,39V19
				c0-2.209-1.791-4-4-4s-4,1.791-4,4v20c0,0.273,0.028,0.541,0.08,0.799C177.506,41.323,175,44.868,175,49c0,5.522,4.477,10,10,10
				s10-4.478,10-10C195,44.868,192.494,41.323,188.92,39.799z"/>
		</g>
	</g>
	<g id="pin6">
		<g>
			<path fill-rule="evenodd" clip-rule="evenodd" fill="#0E0D0E" d="M213.92,39.799C213.972,39.541,214,39.273,214,39V19
				c0-2.209-1.791-4-4-4s-4,1.791-4,4v20c0,0.273,0.028,0.541,0.08,0.799C202.506,41.323,200,44.868,200,49c0,5.522,4.477,10,10,10
				s10-4.478,10-10C220,44.868,217.494,41.323,213.92,39.799z"/>
		</g>
	</g>
	<g id="pin7">
		<g>
			<path fill-rule="evenodd" clip-rule="evenodd" fill="#0E0D0E" d="M238.92,39.799C238.972,39.541,239,39.273,239,39V19
				c0-2.209-1.791-4-4-4s-4,1.791-4,4v20c0,0.273,0.028,0.541,0.08,0.799C227.506,41.323,225,44.868,225,49c0,5.522,4.477,10,10,10
				s10-4.478,10-10C245,44.868,242.494,41.323,238.92,39.799z"/>
		</g>
	</g>
</g>
<g id="bottom-pines_1_">
	<g id="pin_1_">
		<g>
			<path fill-rule="evenodd" clip-rule="evenodd" fill="#0E0D0E" d="M245,254c0-5.522-4.477-10-10-10s-10,4.478-10,10
				c0,4.132,2.506,7.677,6.08,9.201c-0.052,0.258-0.08,0.525-0.08,0.799v20c0,2.209,1.791,4,4,4s4-1.791,4-4v-20
				c0-0.273-0.028-0.541-0.08-0.799C242.494,261.677,245,258.132,245,254z"/>
		</g>
	</g>
	<g id="pin2_1_">
		<g>
			<path fill-rule="evenodd" clip-rule="evenodd" fill="#0E0D0E" d="M220,254c0-5.522-4.477-10-10-10s-10,4.478-10,10
				c0,4.132,2.506,7.677,6.08,9.201c-0.052,0.258-0.08,0.525-0.08,0.799v20c0,2.209,1.791,4,4,4s4-1.791,4-4v-20
				c0-0.273-0.028-0.541-0.08-0.799C217.494,261.677,220,258.132,220,254z"/>
		</g>
	</g>
	<g id="pin3_1_">
		<g>
			<path fill-rule="evenodd" clip-rule="evenodd" fill="#0E0D0E" d="M195,254c0-5.522-4.477-10-10-10s-10,4.478-10,10
				c0,4.132,2.506,7.677,6.08,9.201c-0.052,0.258-0.08,0.525-0.08,0.799v20c0,2.209,1.791,4,4,4s4-1.791,4-4v-20
				c0-0.273-0.028-0.541-0.08-0.799C192.494,261.677,195,258.132,195,254z"/>
		</g>
	</g>
	<g id="pin4_1_">
		<g>
			<path fill-rule="evenodd" clip-rule="evenodd" fill="#0E0D0E" d="M170,254c0-5.522-4.477-10-10-10c-5.523,0-10,4.478-10,10
				c0,4.132,2.506,7.677,6.081,9.201C156.028,263.459,156,263.727,156,264v20c0,2.209,1.791,4,4,4s4-1.791,4-4v-20
				c0-0.273-0.028-0.541-0.08-0.799C167.494,261.677,170,258.132,170,254z"/>
		</g>
	</g>
	<g id="pin5_1_">
		<g>
			<path fill-rule="evenodd" clip-rule="evenodd" fill="#0E0D0E" d="M145,254c0-5.522-4.477-10-10-10s-10,4.478-10,10
				c0,4.132,2.506,7.677,6.081,9.201C131.028,263.459,131,263.727,131,264v20c0,2.209,1.791,4,4,4s4-1.791,4-4v-20
				c0-0.273-0.028-0.541-0.081-0.799C142.494,261.677,145,258.132,145,254z"/>
		</g>
	</g>
	<g id="pin6_1_">
		<g>
			<path fill-rule="evenodd" clip-rule="evenodd" fill="#0E0D0E" d="M120,254c0-5.522-4.477-10-10-10s-10,4.478-10,10
				c0,4.132,2.506,7.677,6.081,9.201C106.028,263.459,106,263.727,106,264v20c0,2.209,1.791,4,4,4s4-1.791,4-4v-20
				c0-0.273-0.028-0.541-0.081-0.799C117.494,261.677,120,258.132,120,254z"/>
		</g>
	</g>
	<g id="pin7_1_">
		<g>
			<path fill-rule="evenodd" clip-rule="evenodd" fill="#0E0D0E" d="M95,254c0-5.522-4.477-10-10-10s-10,4.478-10,10
				c0,4.132,2.506,7.677,6.081,9.201C81.028,263.459,81,263.727,81,264v20c0,2.209,1.791,4,4,4s4-1.791,4-4v-20
				c0-0.273-0.028-0.541-0.081-0.799C92.494,261.677,95,258.132,95,254z"/>
		</g>
	</g>
</g>
<g id="left-pines_1_">
	<g id="pin_2_">
		<g>
			<path fill-rule="evenodd" clip-rule="evenodd" fill="#0E0D0E" d="M58,215c-4.131,0-7.677,2.506-9.201,6.08
				C48.541,221.028,48.273,221,48,221H28c-2.209,0-4,1.791-4,4s1.791,4,4,4h20c0.273,0,0.541-0.028,0.799-0.08
				c1.524,3.574,5.07,6.08,9.201,6.08c5.523,0,10-4.478,10-10S63.523,215,58,215z"/>
		</g>
	</g>
	<g id="pin2_2_">
		<g>
			<path fill-rule="evenodd" clip-rule="evenodd" fill="#0E0D0E" d="M58,190c-4.131,0-7.677,2.506-9.201,6.08
				C48.541,196.028,48.273,196,48,196H28c-2.209,0-4,1.791-4,4s1.791,4,4,4h20c0.273,0,0.541-0.028,0.799-0.08
				c1.524,3.574,5.07,6.08,9.201,6.08c5.523,0,10-4.478,10-10S63.523,190,58,190z"/>
		</g>
	</g>
	<g id="pin3_2_">
		<g>
			<path fill-rule="evenodd" clip-rule="evenodd" fill="#0E0D0E" d="M58,165c-4.131,0-7.677,2.506-9.201,6.08
				C48.541,171.028,48.273,171,48,171H28c-2.209,0-4,1.791-4,4s1.791,4,4,4h20c0.273,0,0.541-0.028,0.799-0.08
				c1.524,3.574,5.07,6.08,9.201,6.08c5.523,0,10-4.478,10-10S63.523,165,58,165z"/>
		</g>
	</g>
	<g id="pin4_2_">
		<g>
			<path fill-rule="evenodd" clip-rule="evenodd" fill="#0E0D0E" d="M58,140c-4.131,0-7.677,2.506-9.201,6.08
				C48.541,146.028,48.273,146,48,146H28c-2.209,0-4,1.791-4,4s1.791,4,4,4h20c0.273,0,0.541-0.028,0.799-0.08
				c1.524,3.574,5.07,6.08,9.201,6.08c5.523,0,10-4.478,10-10S63.523,140,58,140z"/>
		</g>
	</g>
	<g id="pin5_2_">
		<g>
			<path fill-rule="evenodd" clip-rule="evenodd" fill="#0E0D0E" d="M58,115c-4.131,0-7.677,2.506-9.201,6.08
				C48.541,121.028,48.273,121,48,121H28c-2.209,0-4,1.791-4,4s1.791,4,4,4h20c0.273,0,0.541-0.028,0.799-0.08
				c1.524,3.574,5.07,6.08,9.201,6.08c5.523,0,10-4.478,10-10S63.523,115,58,115z"/>
		</g>
	</g>
	<g id="pin6_2_">
		<g>
			<path fill-rule="evenodd" clip-rule="evenodd" fill="#0E0D0E" d="M58,90c-4.131,0-7.677,2.506-9.201,6.08
				C48.541,96.028,48.273,96,48,96H28c-2.209,0-4,1.791-4,4s1.791,4,4,4h20c0.273,0,0.541-0.028,0.799-0.08
				c1.524,3.574,5.07,6.08,9.201,6.08c5.523,0,10-4.478,10-10S63.523,90,58,90z"/>
		</g>
	</g>
	<g id="pin7_2_">
		<g>
			<path fill-rule="evenodd" clip-rule="evenodd" fill="#0E0D0E" d="M58,65c-4.131,0-7.677,2.506-9.201,6.08
				C48.541,71.028,48.273,71,48,71H28c-2.209,0-4,1.791-4,4s1.791,4,4,4h20c0.273,0,0.541-0.028,0.799-0.08
				C50.323,82.494,53.869,85,58,85c5.523,0,10-4.478,10-10S63.523,65,58,65z"/>
		</g>
	</g>
</g>
<g id="right-pines_1_">
	<g id="pin_3_">
		<g>
			<path fill-rule="evenodd" clip-rule="evenodd" fill="#0E0D0E" d="M293,71h-20c-0.273,0-0.541,0.028-0.799,0.08
				C270.677,67.506,267.131,65,263,65c-5.523,0-10,4.478-10,10s4.477,10,10,10c4.131,0,7.677-2.506,9.201-6.08
				C272.459,78.972,272.727,79,273,79h20c2.209,0,4-1.791,4-4S295.209,71,293,71z"/>
		</g>
	</g>
	<g id="pin2_3_">
		<g>
			<path fill-rule="evenodd" clip-rule="evenodd" fill="#0E0D0E" d="M293,96h-20c-0.273,0-0.541,0.028-0.799,0.08
				C270.677,92.506,267.131,90,263,90c-5.523,0-10,4.478-10,10s4.477,10,10,10c4.131,0,7.677-2.506,9.201-6.08
				c0.258,0.052,0.525,0.08,0.799,0.08h20c2.209,0,4-1.791,4-4S295.209,96,293,96z"/>
		</g>
	</g>
	<g id="pin3_3_">
		<g>
			<path fill-rule="evenodd" clip-rule="evenodd" fill="#0E0D0E" d="M293,121h-20c-0.273,0-0.541,0.028-0.799,0.08
				c-1.524-3.574-5.07-6.08-9.201-6.08c-5.523,0-10,4.478-10,10s4.477,10,10,10c4.131,0,7.677-2.506,9.201-6.08
				c0.258,0.052,0.525,0.08,0.799,0.08h20c2.209,0,4-1.791,4-4S295.209,121,293,121z"/>
		</g>
	</g>
	<g id="pin4_3_">
		<g>
			<path fill-rule="evenodd" clip-rule="evenodd" fill="#0E0D0E" d="M293,146h-20c-0.273,0-0.541,0.028-0.799,0.08
				c-1.524-3.574-5.07-6.08-9.201-6.08c-5.523,0-10,4.478-10,10s4.477,10,10,10c4.131,0,7.677-2.506,9.201-6.08
				c0.258,0.052,0.525,0.08,0.799,0.08h20c2.209,0,4-1.791,4-4S295.209,146,293,146z"/>
		</g>
	</g>
	<g id="pin5_3_">
		<g>
			<path fill-rule="evenodd" clip-rule="evenodd" fill="#0E0D0E" d="M293,171h-20c-0.273,0-0.541,0.028-0.799,0.08
				c-1.524-3.574-5.07-6.08-9.201-6.08c-5.523,0-10,4.478-10,10s4.477,10,10,10c4.131,0,7.677-2.506,9.201-6.08
				c0.258,0.052,0.525,0.08,0.799,0.08h20c2.209,0,4-1.791,4-4S295.209,171,293,171z"/>
		</g>
	</g>
	<g id="pin6_3_">
		<g>
			<path fill-rule="evenodd" clip-rule="evenodd" fill="#0E0D0E" d="M293,196h-20c-0.273,0-0.541,0.028-0.799,0.08
				c-1.524-3.574-5.07-6.08-9.201-6.08c-5.523,0-10,4.478-10,10s4.477,10,10,10c4.131,0,7.677-2.506,9.201-6.08
				c0.258,0.052,0.525,0.08,0.799,0.08h20c2.209,0,4-1.791,4-4S295.209,196,293,196z"/>
		</g>
	</g>
	<g id="pin7_3_">
		<g>
			<path fill-rule="evenodd" clip-rule="evenodd" fill="#0E0D0E" d="M293,221h-20c-0.273,0-0.541,0.028-0.799,0.08
				c-1.524-3.574-5.07-6.08-9.201-6.08c-5.523,0-10,4.478-10,10s4.477,10,10,10c4.131,0,7.677-2.506,9.201-6.08
				c0.258,0.052,0.525,0.08,0.799,0.08h20c2.209,0,4-1.791,4-4S295.209,221,293,221z"/>
		</g>
	</g>
</g>
<g id="core_1_" enable-background="new    ">
	<g id="core">
		<g>
			<path fill-rule="evenodd" clip-rule="evenodd" fill="#FFFFFF" d="M230,65H90c-8.284,0-15,6.716-15,15v140c0,8.284,6.716,15,15,15
				h140c8.284,0,15-6.716,15-15V80C245,71.716,238.284,65,230,65z"/>
		</g>
	</g>
</g>
<g id="Intel">
	<text transform="matrix(1 0 0 1 122.0044 163.0557)"><tspan x="0" y="0" fill="#0E0D0E" font-family="'NeoSansStd-Bold'" font-size="36">Inte</tspan><tspan x="69.624" y="0" fill="#0E0D0E" font-family="'OpenSans-Bold'" font-size="30">l</tspan></text>
</g>
</svg>
